<svg xmlns="http://www.w3.org/2000/svg" width="446.254" height="368.8" viewBox="0 0 446.254 368.8">
  <g id="Pasted-20230903-004446" transform="translate(-2.98 15.53)">
    <g id="Group_3" data-name="Group 3" transform="translate(-30 -33)">
      <path id="Path_16" data-name="Path 16" d="M88.94,26.94c6.5-6.61,12.86-9.45,22.33-9.44q102.03.03,204.04-.03c13.06-.01,24.03,4.68,28.15,17.81q1.56,4.97,1.55,17.61-.02,76.54-.01,153.1a1.105,1.105,0,0,1-.42.87,64.422,64.422,0,0,0-16.77,19.68.3.3,0,0,1-.56-.14q-.01-89.74.01-179.55c0-8.66-2.54-11.84-11.12-11.84q-100.07-.02-200.1-.01a.52.52,0,0,0-.52.52q-.08,19.26.04,38.72c.11,18.05-11.58,28.73-29.05,28.55q-17.64-.18-35.25.02a.483.483,0,0,0-.54.54q.18,127.755.03,255.49c0,6.59,3.3,9.65,9.66,9.65q92.14.01,184.27.01a.934.934,0,0,1,.84.46,62.817,62.817,0,0,0,15.85,16.71.33.33,0,0,1-.19.59q-95.12-.03-190.43.01-14.86,0-19.84-1.53c-12.71-3.89-17.94-14.72-17.93-27.58q.04-127.98.01-255.96c0-9.94,1.48-17.33,7.8-24.16Q59.19,57.17,88.94,26.94Zm8.35,11.35L52.54,84.8a.26.26,0,0,0,.19.44q16.01.03,32.13,0c7.5-.02,12.91-1.21,12.9-9.74q-.01-18.59-.01-37.03a.253.253,0,0,0-.162-.245.278.278,0,0,0-.3.065Z" fill="#0076c0"/>
      <rect id="Rectangle_1" data-name="Rectangle 1" width="238.04" height="17.42" rx="8.64" transform="translate(69.88 129.27)" fill="#0076c0"/>
      <rect id="Rectangle_2" data-name="Rectangle 2" width="238.08" height="17.22" rx="8.54" transform="translate(69.86 171.26)" fill="#0076c0"/>
      <path id="Path_17" data-name="Path 17" d="M439.02,274.68a.46.46,0,0,0,.17-.63q-9.49-16.29-18.73-32.18-5.83-10.05-9.84-14.1c-25.27-25.53-68.87-6.96-68.41,28.81.12,9.3,3.56,16.66,8.64,24.79q.39.63-.35.63H339.77a.885.885,0,0,1-.78-.46q-13.19-23.74-1.93-47.71c14.63-31.16,57.43-37.69,81.54-12.8a65.961,65.961,0,0,1,8.73,12.27q22.5,38.36,44.74,76.89c12.56,21.77,8.34,48.06-10.58,64.17q-19.66,16.75-47.32,9.93a.26.26,0,0,1-.08-.47c35.44-22.81,34.67-71.27-.44-93.9a.3.3,0,0,1,.01-.51Z" fill="#0076c0"/>
      <rect id="Rectangle_3" data-name="Rectangle 3" width="146.26" height="17.42" rx="8.6" transform="translate(69.9 212.8)" fill="#0076c0"/>
      <path id="Path_18" data-name="Path 18" d="M101.25,308.29v14.58a.557.557,0,0,0,.63.63H107a.442.442,0,0,1,.5.5v12.5a.442.442,0,0,1-.5.5H74.75a.442.442,0,0,1-.5-.5V324.19a.78.78,0,0,1,.8-.78l4.3.12a.556.556,0,0,0,.65-.63V279.78a1.11,1.11,0,0,0-1.44-1.06,6.8,6.8,0,0,1-3.69.12.737.737,0,0,1-.62-.79V266.01a.446.446,0,0,1,.51-.5q17.88-.02,35.74-.02c12.39,0,25.06,4.49,25.5,18.71.28,8.96-4.35,15.36-13.32,16.76a.29.29,0,0,0-.05.57q12.33,4.06,12.1,16.95c-.03,2.02.93,5.12,3.48,3.97a1.49,1.49,0,0,0,.88-1.28l.23-4.46a.427.427,0,0,1,.48-.46h5.7a.55.55,0,0,1,.61.55c1.11,9.37-1.24,20.53-12.79,21.36-11.96.87-21.9-4.62-21.89-17.87a40.013,40.013,0,0,0-1.11-9.36,1.891,1.891,0,0,0-.75-1.11,10.975,10.975,0,0,0-7.89-2.01A.434.434,0,0,0,101.25,308.29Zm-.03-29.2.06,16.72a.23.23,0,0,0,.23.23l5.27-.01a8.469,8.469,0,0,0,8.71-8.2v-.841a8.47,8.47,0,0,0-8.771-8.14l-5.269.01a.23.23,0,0,0-.23.23Z" fill="#0076c0"/>
      <path id="Path_19" data-name="Path 19" d="M156.45,323.79l9.58-10.77a.687.687,0,0,0-.01-1.03q-5.46-5.88-10.99-12.06c-1.41-1.58-2.6-1.47-4.51-1.12a1.064,1.064,0,0,1-.881-.23,1.086,1.086,0,0,1-.389-.83v-11.5a.442.442,0,0,1,.5-.5h32.12a.557.557,0,0,1,.63.63v11.79a.555.555,0,0,1-.68.63l-2.91-.21a.5.5,0,0,0-.41.84l5.92,6.48a.555.555,0,0,0,.4.181.575.575,0,0,0,.415-.171l6.56-6.79a.34.34,0,0,0-.26-.57l-5.37.25a.564.564,0,0,1-.67-.64V286.25a.442.442,0,0,1,.5-.5h25.13a.552.552,0,0,1,.62.63v11.26a1.1,1.1,0,0,1-1.15,1.1l-4.93-.22a1.277,1.277,0,0,0-1.02.4l-10.13,10.32a.487.487,0,0,0-.02.73q5.39,6.23,10.94,12.39a5.533,5.533,0,0,0,5.61,1.83.58.58,0,0,1,.7.57V336.5a.442.442,0,0,1-.5.5H179.79a.421.421,0,0,1-.48-.46l-.22-11.58a.7.7,0,0,1,.7-.71h3.16a.41.41,0,0,0,.29-.69l-6.74-7.08a.446.446,0,0,0-.75.02l-6.2,7.15q-.53.6.27.6H175a.442.442,0,0,1,.5.5V336.5a.442.442,0,0,1-.5.5H149.75a.442.442,0,0,1-.5-.5V324.87a.552.552,0,0,1,.63-.62h5.55A1.311,1.311,0,0,0,156.45,323.79Z" fill="#0076c0"/>
      <path id="Path_20" data-name="Path 20" d="M285.11,383.98c-25.38-5.83-41.77-31.67-36.16-57.19a48.306,48.306,0,0,1,36.16-36.72,66.432,66.432,0,0,1,15.01-1.31q39.25.01,78.49-.04,11.67-.01,17.68,1.36c39.86,9.13,51.24,61.51,17.36,86.07-10.53,7.63-20.37,9.06-34.48,9.08q-37.07.05-74.15.01Q290.57,385.23,285.11,383.98Zm54.14-9.22V299.2a.77.77,0,0,0-.77-.77H296.85c-21.605,0-39.12,17.259-39.12,38.55h0c0,21.291,17.515,38.55,39.12,38.55h41.63a.77.77,0,0,0,.77-.77Z" fill="#0076c0"/>
    </g>
  </g>
</svg>
