<?xml version="1.0" encoding="UTF-8" standalone="no"?>
<!DOCTYPE svg PUBLIC "-//W3C//DTD SVG 1.1//EN" "http://www.w3.org/Graphics/SVG/1.1/DTD/svg11.dtd">
<svg xmlns="http://www.w3.org/2000/svg" version="1.1" viewBox="0.00 0.00 1600.00 818.00">
<g stroke-width="2.00" fill="none" stroke-linecap="butt">
<path stroke="#80ceec" vector-effect="non-scaling-stroke" d="
  M 139.85 0.00
  Q 72.44 0.66 5.03 1.01
  Q 4.68 1.01 2.48 0.88
  Q 0.01 0.73 0.00 1.87"
/>
<path stroke="#80ceec" vector-effect="non-scaling-stroke" d="
  M 170.62 0.00
  C 183.93 1.01 195.55 7.09 200.86 19.35
  Q 204.49 27.72 204.49 36.45
  Q 204.50 227.01 204.50 426.13
  Q 204.50 426.71 205.08 426.71
  Q 414.57 426.83 624.78 426.67
  Q 633.19 426.67 639.33 427.23
  C 656.47 428.82 674.31 442.16 674.30 460.73
  Q 674.24 526.54 674.33 595.23
  Q 674.34 601.56 673.00 605.96
  C 669.60 617.09 659.72 625.19 648.70 628.95
  Q 641.64 631.35 631.46 631.35
  Q 408.22 631.31 185.11 631.37
  C 178.52 631.38 171.89 631.63 165.50 631.64
  Q 102.42 631.72 43.76 631.67
  Q 35.53 631.66 26.75 631.43
  C 18.68 631.22 9.57 631.65 0.99 631.24
  Q 0.49 631.22 0.48 630.71
  L 0.00 593.20"
/>
<path stroke="#80ceec" vector-effect="non-scaling-stroke" d="
  M 651.17 1.77
  Q 645.51 0.25 643.00 0.25
  Q 573.29 0.22 497.50 0.42
  Q 494.79 0.42 492.00 0.43
  Q 403.44 0.49 314.87 0.46
  Q 314.29 0.46 314.29 1.04
  L 315.40 344.92
  Q 315.41 345.45 315.94 345.44
  Q 335.51 345.03 353.76 345.04
  Q 493.00 345.13 632.23 345.12
  Q 643.58 345.12 646.26 344.75
  C 660.81 342.70 672.47 331.75 676.22 317.70
  Q 677.57 312.62 677.55 299.88
  Q 677.36 164.89 677.55 39.44
  Q 677.58 16.49 658.75 5.02
  Q 655.23 2.87 651.17 1.77"
/>
<path stroke="#808080" vector-effect="non-scaling-stroke" d="
  M 830.40 597.57
  A 0.39 0.39 0.0 0 1 830.01 597.18
  L 830.01 429.52
  A 0.39 0.39 0.0 0 0 829.62 429.13
  L 789.18 429.15
  A 0.39 0.39 0.0 0 0 788.79 429.54
  L 788.79 630.80
  A 0.39 0.39 0.0 0 0 789.18 631.19
  L 931.01 631.20
  A 0.39 0.39 0.0 0 0 931.40 630.81
  L 931.41 597.95
  A 0.39 0.39 0.0 0 0 931.02 597.56
  L 830.40 597.57"
/>
<path stroke="#808080" vector-effect="non-scaling-stroke" d="
  M 1044.65 615.35
  A 0.57 0.57 0.0 0 1 1045.57 615.65
  Q 1047.58 623.80 1050.08 630.69
  Q 1050.27 631.20 1050.80 631.20
  L 1088.23 631.19
  A 0.35 0.35 0.0 0 0 1088.55 630.69
  C 1082.17 616.99 1080.16 601.11 1080.18 586.09
  C 1080.20 573.61 1080.14 560.61 1080.43 547.78
  C 1080.81 531.18 1080.95 508.92 1069.16 495.69
  C 1061.77 487.40 1049.41 484.17 1038.28 482.87
  C 1003.57 478.80 966.53 483.73 955.39 522.76
  A 0.50 0.50 0.0 0 0 955.79 523.39
  Q 972.07 526.11 985.87 528.71
  Q 987.86 529.09 990.20 529.30
  Q 990.67 529.34 990.82 528.90
  C 994.29 518.98 1001.94 512.33 1012.50 511.43
  C 1022.25 510.59 1035.55 512.21 1040.20 521.71
  Q 1042.69 526.78 1042.22 534.64
  Q 1042.18 535.20 1041.66 535.41
  Q 1038.32 536.72 1034.54 537.80
  C 1021.63 541.50 1008.51 543.86 995.53 546.62
  Q 980.80 549.76 968.85 556.08
  C 955.79 562.99 950.72 578.81 951.26 593.24
  C 952.13 616.65 969.74 631.46 992.11 633.76
  Q 1017.22 636.35 1036.37 622.20
  C 1039.23 620.08 1041.95 617.67 1044.65 615.35"
/>
<path stroke="#808080" vector-effect="non-scaling-stroke" d="
  M 1215.16 504.40
  C 1205.91 491.12 1191.06 483.07 1175.65 481.95
  C 1156.31 480.54 1136.76 486.35 1125.29 502.93
  Q 1111.64 522.66 1109.76 547.88
  C 1108.36 566.77 1110.89 585.10 1119.98 601.48
  C 1128.73 617.26 1141.28 627.88 1159.59 630.51
  C 1181.32 633.64 1199.53 626.39 1212.55 608.73
  Q 1213.39 607.59 1213.40 609.00
  Q 1213.57 622.59 1213.27 633.46
  Q 1213.07 641.07 1210.38 647.51
  C 1205.09 660.19 1188.27 660.90 1176.73 660.13
  C 1168.13 659.56 1160.85 655.63 1159.07 646.45
  Q 1158.95 645.82 1158.32 645.75
  L 1115.21 640.65
  Q 1114.42 640.56 1114.38 641.35
  C 1113.15 661.66 1121.73 676.17 1140.92 683.55
  C 1156.57 689.57 1174.91 690.39 1192.30 689.56
  C 1213.07 688.57 1234.61 682.76 1244.10 663.07
  Q 1246.80 657.48 1248.42 651.28
  Q 1251.95 637.87 1252.01 622.25
  Q 1252.27 555.48 1252.24 485.05
  A 0.28 0.27 90.0 0 0 1251.97 484.77
  L 1216.25 484.76
  Q 1215.76 484.76 1215.76 485.25
  L 1215.80 504.20
  A 0.35 0.35 0.0 0 1 1215.16 504.40"
/>
<path stroke="#808080" vector-effect="non-scaling-stroke" d="
  M 1373.74 615.38
  Q 1374.63 614.52 1374.92 615.73
  Q 1376.90 623.82 1379.33 630.55
  Q 1379.56 631.19 1380.25 631.19
  L 1417.47 631.20
  A 0.43 0.43 0.0 0 0 1417.86 630.59
  C 1411.30 617.05 1409.34 600.18 1409.47 585.03
  Q 1409.70 559.74 1409.75 535.57
  Q 1409.78 518.70 1404.74 506.00
  C 1398.29 489.73 1383.16 484.55 1367.03 482.80
  C 1332.27 479.02 1295.98 483.79 1284.67 522.73
  A 0.46 0.46 0.0 0 0 1285.03 523.31
  L 1319.18 529.40
  A 0.86 0.86 0.0 0 0 1320.14 528.85
  C 1324.18 517.77 1332.37 511.63 1344.25 511.26
  C 1355.48 510.92 1367.90 513.55 1371.06 525.81
  C 1371.80 528.68 1371.61 531.73 1371.61 534.67
  A 0.89 0.88 -9.1 0 1 1371.00 535.51
  C 1355.60 540.65 1340.40 543.29 1324.77 546.67
  Q 1316.41 548.47 1308.54 551.36
  C 1300.97 554.13 1293.28 557.78 1288.60 564.33
  C 1280.45 575.72 1278.65 591.53 1282.45 604.52
  C 1287.02 620.11 1301.22 630.44 1316.93 633.11
  Q 1349.68 638.69 1373.74 615.38"
/>
<path stroke="#808080" vector-effect="non-scaling-stroke" d="
  M 1485.20 613.05
  A 0.29 0.28 23.9 0 1 1485.70 612.86
  C 1496.88 625.32 1511.09 634.20 1528.30 634.16
  C 1579.98 634.04 1595.85 575.94 1586.89 534.54
  C 1583.39 518.36 1574.65 501.47 1561.50 491.79
  C 1549.61 483.04 1534.60 480.58 1520.01 482.27
  C 1504.70 484.05 1491.71 492.35 1483.40 505.42
  Q 1483.03 506.00 1482.65 505.50
  A 0.35 0.33 -65.8 0 1 1482.58 505.29
  L 1482.60 485.19
  Q 1482.60 484.77 1482.19 484.77
  L 1446.52 484.77
  A 0.32 0.32 0.0 0 0 1446.20 485.09
  L 1446.20 686.25
  Q 1446.20 686.80 1446.75 686.80
  L 1484.59 686.80
  Q 1485.22 686.80 1485.22 686.17
  L 1485.20 613.05"
/>
<path stroke="#808080" vector-effect="non-scaling-stroke" d="
  M 994.19 598.54
  C 997.89 602.70 1004.06 605.84 1009.60 606.11
  C 1029.30 607.08 1039.51 595.87 1041.63 577.81
  Q 1042.55 570.01 1042.18 560.92
  Q 1042.15 560.28 1041.52 560.41
  Q 1022.33 564.46 1000.13 572.03
  C 989.28 575.72 987.03 590.48 994.19 598.54"
/>
<path stroke="#808080" vector-effect="non-scaling-stroke" d="
  M 1183.03 511.28
  C 1164.74 510.50 1154.01 520.73 1150.82 537.75
  Q 1148.11 552.16 1149.97 567.34
  C 1152.01 583.96 1159.22 598.16 1177.43 599.48
  C 1212.29 602.01 1216.28 568.89 1213.22 542.83
  C 1211.14 525.17 1201.81 512.09 1183.03 511.28"
/>
<path stroke="#808080" vector-effect="non-scaling-stroke" d="
  M 1369.59 584.89
  C 1371.79 576.73 1371.64 569.18 1371.62 560.92
  A 0.51 0.51 0.0 0 0 1371.01 560.42
  Q 1352.53 564.21 1329.82 571.89
  C 1324.59 573.65 1320.55 578.14 1319.78 583.43
  C 1317.59 598.29 1329.84 607.05 1343.48 606.16
  C 1357.46 605.24 1366.10 597.87 1369.59 584.89"
/>
<path stroke="#808080" vector-effect="non-scaling-stroke" d="
  M 1514.15 512.81
  C 1497.25 514.09 1488.20 525.30 1485.79 541.26
  Q 1483.14 558.84 1486.74 575.67
  C 1490.06 591.19 1499.64 601.63 1516.26 602.50
  C 1536.79 603.56 1546.19 589.71 1548.58 571.40
  Q 1550.51 556.57 1548.46 542.58
  C 1545.63 523.34 1534.63 511.26 1514.15 512.81"
/>
</g>
<g fill="#ffffff">
<path d="
  M 0.00 0.00
  L 139.85 0.00
  Q 72.44 0.66 5.03 1.01
  Q 4.68 1.01 2.48 0.88
  Q 0.01 0.73 0.00 1.87
  L 0.00 0.00
  Z"
/>
<path d="
  M 170.62 0.00
  L 1600.00 0.00
  L 1600.00 818.00
  L 0.00 818.00
  L 0.00 593.20
  L 0.48 630.71
  Q 0.49 631.22 0.99 631.24
  C 9.57 631.65 18.68 631.22 26.75 631.43
  Q 35.53 631.66 43.76 631.67
  Q 102.42 631.72 165.50 631.64
  C 171.89 631.63 178.52 631.38 185.11 631.37
  Q 408.22 631.31 631.46 631.35
  Q 641.64 631.35 648.70 628.95
  C 659.72 625.19 669.60 617.09 673.00 605.96
  Q 674.34 601.56 674.33 595.23
  Q 674.24 526.54 674.30 460.73
  C 674.31 442.16 656.47 428.82 639.33 427.23
  Q 633.19 426.67 624.78 426.67
  Q 414.57 426.83 205.08 426.71
  Q 204.50 426.71 204.50 426.13
  Q 204.50 227.01 204.49 36.45
  Q 204.49 27.72 200.86 19.35
  C 195.55 7.09 183.93 1.01 170.62 0.00
  Z
  M 651.17 1.77
  Q 645.51 0.25 643.00 0.25
  Q 573.29 0.22 497.50 0.42
  Q 494.79 0.42 492.00 0.43
  Q 403.44 0.49 314.87 0.46
  Q 314.29 0.46 314.29 1.04
  L 315.40 344.92
  Q 315.41 345.45 315.94 345.44
  Q 335.51 345.03 353.76 345.04
  Q 493.00 345.13 632.23 345.12
  Q 643.58 345.12 646.26 344.75
  C 660.81 342.70 672.47 331.75 676.22 317.70
  Q 677.57 312.62 677.55 299.88
  Q 677.36 164.89 677.55 39.44
  Q 677.58 16.49 658.75 5.02
  Q 655.23 2.87 651.17 1.77
  Z
  M 830.40 597.57
  A 0.39 0.39 0.0 0 1 830.01 597.18
  L 830.01 429.52
  A 0.39 0.39 0.0 0 0 829.62 429.13
  L 789.18 429.15
  A 0.39 0.39 0.0 0 0 788.79 429.54
  L 788.79 630.80
  A 0.39 0.39 0.0 0 0 789.18 631.19
  L 931.01 631.20
  A 0.39 0.39 0.0 0 0 931.40 630.81
  L 931.41 597.95
  A 0.39 0.39 0.0 0 0 931.02 597.56
  L 830.40 597.57
  Z
  M 1044.65 615.35
  A 0.57 0.57 0.0 0 1 1045.57 615.65
  Q 1047.58 623.80 1050.08 630.69
  Q 1050.27 631.20 1050.80 631.20
  L 1088.23 631.19
  A 0.35 0.35 0.0 0 0 1088.55 630.69
  C 1082.17 616.99 1080.16 601.11 1080.18 586.09
  C 1080.20 573.61 1080.14 560.61 1080.43 547.78
  C 1080.81 531.18 1080.95 508.92 1069.16 495.69
  C 1061.77 487.40 1049.41 484.17 1038.28 482.87
  C 1003.57 478.80 966.53 483.73 955.39 522.76
  A 0.50 0.50 0.0 0 0 955.79 523.39
  Q 972.07 526.11 985.87 528.71
  Q 987.86 529.09 990.20 529.30
  Q 990.67 529.34 990.82 528.90
  C 994.29 518.98 1001.94 512.33 1012.50 511.43
  C 1022.25 510.59 1035.55 512.21 1040.20 521.71
  Q 1042.69 526.78 1042.22 534.64
  Q 1042.18 535.20 1041.66 535.41
  Q 1038.32 536.72 1034.54 537.80
  C 1021.63 541.50 1008.51 543.86 995.53 546.62
  Q 980.80 549.76 968.85 556.08
  C 955.79 562.99 950.72 578.81 951.26 593.24
  C 952.13 616.65 969.74 631.46 992.11 633.76
  Q 1017.22 636.35 1036.37 622.20
  C 1039.23 620.08 1041.95 617.67 1044.65 615.35
  Z
  M 1215.16 504.40
  C 1205.91 491.12 1191.06 483.07 1175.65 481.95
  C 1156.31 480.54 1136.76 486.35 1125.29 502.93
  Q 1111.64 522.66 1109.76 547.88
  C 1108.36 566.77 1110.89 585.10 1119.98 601.48
  C 1128.73 617.26 1141.28 627.88 1159.59 630.51
  C 1181.32 633.64 1199.53 626.39 1212.55 608.73
  Q 1213.39 607.59 1213.40 609.00
  Q 1213.57 622.59 1213.27 633.46
  Q 1213.07 641.07 1210.38 647.51
  C 1205.09 660.19 1188.27 660.90 1176.73 660.13
  C 1168.13 659.56 1160.85 655.63 1159.07 646.45
  Q 1158.95 645.82 1158.32 645.75
  L 1115.21 640.65
  Q 1114.42 640.56 1114.38 641.35
  C 1113.15 661.66 1121.73 676.17 1140.92 683.55
  C 1156.57 689.57 1174.91 690.39 1192.30 689.56
  C 1213.07 688.57 1234.61 682.76 1244.10 663.07
  Q 1246.80 657.48 1248.42 651.28
  Q 1251.95 637.87 1252.01 622.25
  Q 1252.27 555.48 1252.24 485.05
  A 0.28 0.27 90.0 0 0 1251.97 484.77
  L 1216.25 484.76
  Q 1215.76 484.76 1215.76 485.25
  L 1215.80 504.20
  A 0.35 0.35 0.0 0 1 1215.16 504.40
  Z
  M 1373.74 615.38
  Q 1374.63 614.52 1374.92 615.73
  Q 1376.90 623.82 1379.33 630.55
  Q 1379.56 631.19 1380.25 631.19
  L 1417.47 631.20
  A 0.43 0.43 0.0 0 0 1417.86 630.59
  C 1411.30 617.05 1409.34 600.18 1409.47 585.03
  Q 1409.70 559.74 1409.75 535.57
  Q 1409.78 518.70 1404.74 506.00
  C 1398.29 489.73 1383.16 484.55 1367.03 482.80
  C 1332.27 479.02 1295.98 483.79 1284.67 522.73
  A 0.46 0.46 0.0 0 0 1285.03 523.31
  L 1319.18 529.40
  A 0.86 0.86 0.0 0 0 1320.14 528.85
  C 1324.18 517.77 1332.37 511.63 1344.25 511.26
  C 1355.48 510.92 1367.90 513.55 1371.06 525.81
  C 1371.80 528.68 1371.61 531.73 1371.61 534.67
  A 0.89 0.88 -9.1 0 1 1371.00 535.51
  C 1355.60 540.65 1340.40 543.29 1324.77 546.67
  Q 1316.41 548.47 1308.54 551.36
  C 1300.97 554.13 1293.28 557.78 1288.60 564.33
  C 1280.45 575.72 1278.65 591.53 1282.45 604.52
  C 1287.02 620.11 1301.22 630.44 1316.93 633.11
  Q 1349.68 638.69 1373.74 615.38
  Z
  M 1485.20 613.05
  A 0.29 0.28 23.9 0 1 1485.70 612.86
  C 1496.88 625.32 1511.09 634.20 1528.30 634.16
  C 1579.98 634.04 1595.85 575.94 1586.89 534.54
  C 1583.39 518.36 1574.65 501.47 1561.50 491.79
  C 1549.61 483.04 1534.60 480.58 1520.01 482.27
  C 1504.70 484.05 1491.71 492.35 1483.40 505.42
  Q 1483.03 506.00 1482.65 505.50
  A 0.35 0.33 -65.8 0 1 1482.58 505.29
  L 1482.60 485.19
  Q 1482.60 484.77 1482.19 484.77
  L 1446.52 484.77
  A 0.32 0.32 0.0 0 0 1446.20 485.09
  L 1446.20 686.25
  Q 1446.20 686.80 1446.75 686.80
  L 1484.59 686.80
  Q 1485.22 686.80 1485.22 686.17
  L 1485.20 613.05
  Z"
/>
<path d="
  M 1150.82 537.75
  C 1154.01 520.73 1164.74 510.50 1183.03 511.28
  C 1201.81 512.09 1211.14 525.17 1213.22 542.83
  C 1216.28 568.89 1212.29 602.01 1177.43 599.48
  C 1159.22 598.16 1152.01 583.96 1149.97 567.34
  Q 1148.11 552.16 1150.82 537.75
  Z"
/>
<path d="
  M 1485.79 541.26
  C 1488.20 525.30 1497.25 514.09 1514.15 512.81
  C 1534.63 511.26 1545.63 523.34 1548.46 542.58
  Q 1550.51 556.57 1548.58 571.40
  C 1546.19 589.71 1536.79 603.56 1516.26 602.50
  C 1499.64 601.63 1490.06 591.19 1486.74 575.67
  Q 1483.14 558.84 1485.79 541.26
  Z"
/>
<path d="
  M 1009.60 606.11
  C 1004.06 605.84 997.89 602.70 994.19 598.54
  C 987.03 590.48 989.28 575.72 1000.13 572.03
  Q 1022.33 564.46 1041.52 560.41
  Q 1042.15 560.28 1042.18 560.92
  Q 1042.55 570.01 1041.63 577.81
  C 1039.51 595.87 1029.30 607.08 1009.60 606.11
  Z"
/>
<path d="
  M 1369.59 584.89
  C 1366.10 597.87 1357.46 605.24 1343.48 606.16
  C 1329.84 607.05 1317.59 598.29 1319.78 583.43
  C 1320.55 578.14 1324.59 573.65 1329.82 571.89
  Q 1352.53 564.21 1371.01 560.42
  A 0.51 0.51 0.0 0 1 1371.62 560.92
  C 1371.64 569.18 1371.79 576.73 1369.59 584.89
  Z"
/>
</g>
<g fill="#009cd9">
<path d="
  M 139.85 0.00
  L 170.62 0.00
  C 183.93 1.01 195.55 7.09 200.86 19.35
  Q 204.49 27.72 204.49 36.45
  Q 204.50 227.01 204.50 426.13
  Q 204.50 426.71 205.08 426.71
  Q 414.57 426.83 624.78 426.67
  Q 633.19 426.67 639.33 427.23
  C 656.47 428.82 674.31 442.16 674.30 460.73
  Q 674.24 526.54 674.33 595.23
  Q 674.34 601.56 673.00 605.96
  C 669.60 617.09 659.72 625.19 648.70 628.95
  Q 641.64 631.35 631.46 631.35
  Q 408.22 631.31 185.11 631.37
  C 178.52 631.38 171.89 631.63 165.50 631.64
  Q 102.42 631.72 43.76 631.67
  Q 35.53 631.66 26.75 631.43
  C 18.68 631.22 9.57 631.65 0.99 631.24
  Q 0.49 631.22 0.48 630.71
  L 0.00 593.20
  L 0.00 1.87
  Q 0.01 0.73 2.48 0.88
  Q 4.68 1.01 5.03 1.01
  Q 72.44 0.66 139.85 0.00
  Z"
/>
<path d="
  M 658.75 5.02
  Q 677.58 16.49 677.55 39.44
  Q 677.36 164.89 677.55 299.88
  Q 677.57 312.62 676.22 317.70
  C 672.47 331.75 660.81 342.70 646.26 344.75
  Q 643.58 345.12 632.23 345.12
  Q 493.00 345.13 353.76 345.04
  Q 335.51 345.03 315.94 345.44
  Q 315.41 345.45 315.40 344.92
  L 314.29 1.04
  Q 314.29 0.46 314.87 0.46
  Q 403.44 0.49 492.00 0.43
  Q 494.79 0.42 497.50 0.42
  Q 573.29 0.22 643.00 0.25
  Q 645.51 0.25 651.17 1.77
  Q 655.23 2.87 658.75 5.02
  Z"
/>
</g>
<g fill="#000000">
<path d="
  M 830.40 597.57
  L 931.02 597.56
  A 0.39 0.39 0.0 0 1 931.41 597.95
  L 931.40 630.81
  A 0.39 0.39 0.0 0 1 931.01 631.20
  L 789.18 631.19
  A 0.39 0.39 0.0 0 1 788.79 630.80
  L 788.79 429.54
  A 0.39 0.39 0.0 0 1 789.18 429.15
  L 829.62 429.13
  A 0.39 0.39 0.0 0 1 830.01 429.52
  L 830.01 597.18
  A 0.39 0.39 0.0 0 0 830.40 597.57
  Z"
/>
<path d="
  M 1044.65 615.35
  C 1041.95 617.67 1039.23 620.08 1036.37 622.20
  Q 1017.22 636.35 992.11 633.76
  C 969.74 631.46 952.13 616.65 951.26 593.24
  C 950.72 578.81 955.79 562.99 968.85 556.08
  Q 980.80 549.76 995.53 546.62
  C 1008.51 543.86 1021.63 541.50 1034.54 537.80
  Q 1038.32 536.72 1041.66 535.41
  Q 1042.18 535.20 1042.22 534.64
  Q 1042.69 526.78 1040.20 521.71
  C 1035.55 512.21 1022.25 510.59 1012.50 511.43
  C 1001.94 512.33 994.29 518.98 990.82 528.90
  Q 990.67 529.34 990.20 529.30
  Q 987.86 529.09 985.87 528.71
  Q 972.07 526.11 955.79 523.39
  A 0.50 0.50 0.0 0 1 955.39 522.76
  C 966.53 483.73 1003.57 478.80 1038.28 482.87
  C 1049.41 484.17 1061.77 487.40 1069.16 495.69
  C 1080.95 508.92 1080.81 531.18 1080.43 547.78
  C 1080.14 560.61 1080.20 573.61 1080.18 586.09
  C 1080.16 601.11 1082.17 616.99 1088.55 630.69
  A 0.35 0.35 0.0 0 1 1088.23 631.19
  L 1050.80 631.20
  Q 1050.27 631.20 1050.08 630.69
  Q 1047.58 623.80 1045.57 615.65
  A 0.57 0.57 0.0 0 0 1044.65 615.35
  Z
  M 994.19 598.54
  C 997.89 602.70 1004.06 605.84 1009.60 606.11
  C 1029.30 607.08 1039.51 595.87 1041.63 577.81
  Q 1042.55 570.01 1042.18 560.92
  Q 1042.15 560.28 1041.52 560.41
  Q 1022.33 564.46 1000.13 572.03
  C 989.28 575.72 987.03 590.48 994.19 598.54
  Z"
/>
<path d="
  M 1215.16 504.40
  A 0.35 0.35 0.0 0 0 1215.80 504.20
  L 1215.76 485.25
  Q 1215.76 484.76 1216.25 484.76
  L 1251.97 484.77
  A 0.28 0.27 90.0 0 1 1252.24 485.05
  Q 1252.27 555.48 1252.01 622.25
  Q 1251.95 637.87 1248.42 651.28
  Q 1246.80 657.48 1244.10 663.07
  C 1234.61 682.76 1213.07 688.57 1192.30 689.56
  C 1174.91 690.39 1156.57 689.57 1140.92 683.55
  C 1121.73 676.17 1113.15 661.66 1114.38 641.35
  Q 1114.42 640.56 1115.21 640.65
  L 1158.32 645.75
  Q 1158.95 645.82 1159.07 646.45
  C 1160.85 655.63 1168.13 659.56 1176.73 660.13
  C 1188.27 660.90 1205.09 660.19 1210.38 647.51
  Q 1213.07 641.07 1213.27 633.46
  Q 1213.57 622.59 1213.40 609.00
  Q 1213.39 607.59 1212.55 608.73
  C 1199.53 626.39 1181.32 633.64 1159.59 630.51
  C 1141.28 627.88 1128.73 617.26 1119.98 601.48
  C 1110.89 585.10 1108.36 566.77 1109.76 547.88
  Q 1111.64 522.66 1125.29 502.93
  C 1136.76 486.35 1156.31 480.54 1175.65 481.95
  C 1191.06 483.07 1205.91 491.12 1215.16 504.40
  Z
  M 1183.03 511.28
  C 1164.74 510.50 1154.01 520.73 1150.82 537.75
  Q 1148.11 552.16 1149.97 567.34
  C 1152.01 583.96 1159.22 598.16 1177.43 599.48
  C 1212.29 602.01 1216.28 568.89 1213.22 542.83
  C 1211.14 525.17 1201.81 512.09 1183.03 511.28
  Z"
/>
<path d="
  M 1373.74 615.38
  Q 1349.68 638.69 1316.93 633.11
  C 1301.22 630.44 1287.02 620.11 1282.45 604.52
  C 1278.65 591.53 1280.45 575.72 1288.60 564.33
  C 1293.28 557.78 1300.97 554.13 1308.54 551.36
  Q 1316.41 548.47 1324.77 546.67
  C 1340.40 543.29 1355.60 540.65 1371.00 535.51
  A 0.89 0.88 -9.1 0 0 1371.61 534.67
  C 1371.61 531.73 1371.80 528.68 1371.06 525.81
  C 1367.90 513.55 1355.48 510.92 1344.25 511.26
  C 1332.37 511.63 1324.18 517.77 1320.14 528.85
  A 0.86 0.86 0.0 0 1 1319.18 529.40
  L 1285.03 523.31
  A 0.46 0.46 0.0 0 1 1284.67 522.73
  C 1295.98 483.79 1332.27 479.02 1367.03 482.80
  C 1383.16 484.55 1398.29 489.73 1404.74 506.00
  Q 1409.78 518.70 1409.75 535.57
  Q 1409.70 559.74 1409.47 585.03
  C 1409.34 600.18 1411.30 617.05 1417.86 630.59
  A 0.43 0.43 0.0 0 1 1417.47 631.20
  L 1380.25 631.19
  Q 1379.56 631.19 1379.33 630.55
  Q 1376.90 623.82 1374.92 615.73
  Q 1374.63 614.52 1373.74 615.38
  Z
  M 1369.59 584.89
  C 1371.79 576.73 1371.64 569.18 1371.62 560.92
  A 0.51 0.51 0.0 0 0 1371.01 560.42
  Q 1352.53 564.21 1329.82 571.89
  C 1324.59 573.65 1320.55 578.14 1319.78 583.43
  C 1317.59 598.29 1329.84 607.05 1343.48 606.16
  C 1357.46 605.24 1366.10 597.87 1369.59 584.89
  Z"
/>
<path d="
  M 1485.20 613.05
  L 1485.22 686.17
  Q 1485.22 686.80 1484.59 686.80
  L 1446.75 686.80
  Q 1446.20 686.80 1446.20 686.25
  L 1446.20 485.09
  A 0.32 0.32 0.0 0 1 1446.52 484.77
  L 1482.19 484.77
  Q 1482.60 484.77 1482.60 485.19
  L 1482.58 505.29
  A 0.35 0.33 -65.8 0 0 1482.65 505.50
  Q 1483.03 506.00 1483.40 505.42
  C 1491.71 492.35 1504.70 484.05 1520.01 482.27
  C 1534.60 480.58 1549.61 483.04 1561.50 491.79
  C 1574.65 501.47 1583.39 518.36 1586.89 534.54
  C 1595.85 575.94 1579.98 634.04 1528.30 634.16
  C 1511.09 634.20 1496.88 625.32 1485.70 612.86
  A 0.29 0.28 23.9 0 0 1485.20 613.05
  Z
  M 1514.15 512.81
  C 1497.25 514.09 1488.20 525.30 1485.79 541.26
  Q 1483.14 558.84 1486.74 575.67
  C 1490.06 591.19 1499.64 601.63 1516.26 602.50
  C 1536.79 603.56 1546.19 589.71 1548.58 571.40
  Q 1550.51 556.57 1548.46 542.58
  C 1545.63 523.34 1534.63 511.26 1514.15 512.81
  Z"
/>
</g>
</svg>
